<?xml version="1.0" encoding="UTF-8" ?>
<!DOCTYPE svg PUBLIC "-//W3C//DTD SVG 1.1//EN" "http://www.w3.org/Graphics/SVG/1.1/DTD/svg11.dtd">
<svg viewBox="64.835 49.806 378.664 387.603" width="378.664" height="387.603" version="1.1" xmlns="http://www.w3.org/2000/svg">
  <g id="#25252dff" transform="matrix(1.006108, 0, 0, 1.006108, -156.58699, 7.429187)" style="">
    <path fill="#25252d" opacity="1.00" d=" M 473.28 42.12 C 480.92 53.83 488.05 65.87 495.00 78.00 C 501.64 89.76 507.23 102.06 512.15 114.63 C 513.89 120.39 515.75 126.13 517.15 131.99 C 518.76 138.28 515.39 144.29 514.55 150.42 C 513.98 153.67 516.25 156.44 517.54 159.22 C 521.62 154.96 524.30 149.67 527.68 144.89 C 527.41 156.28 525.68 167.59 525.39 178.98 C 525.01 183.52 530.28 185.70 530.60 190.04 C 531.37 195.01 531.10 200.05 531.20 205.06 C 531.07 210.84 534.42 216.17 533.44 222.02 C 531.77 236.02 528.32 249.86 522.78 262.85 C 520.54 267.91 518.16 273.18 513.85 276.84 C 507.81 281.72 505.73 289.63 500.61 295.30 C 498.01 292.29 495.44 289.25 492.88 286.21 C 493.67 284.40 494.28 282.51 494.85 280.63 C 489.93 283.00 487.95 288.52 483.68 291.68 C 472.68 300.32 459.89 306.33 447.05 311.71 C 451.17 313.44 455.37 314.97 459.65 316.26 C 463.96 317.61 468.51 318.91 471.82 322.16 C 478.32 328.33 484.41 334.94 490.92 341.10 C 492.77 343.24 495.72 342.22 498.12 342.02 C 510.73 339.82 523.66 346.28 531.29 356.21 C 533.47 359.43 534.75 363.13 536.45 366.60 C 537.97 369.99 541.40 371.79 544.25 373.92 C 546.01 379.41 546.80 385.15 547.08 390.90 C 558.36 397.25 569.69 403.50 580.80 410.14 C 580.82 413.65 581.12 417.20 580.58 420.69 C 580.20 423.35 577.87 425.00 576.05 426.71 C 535.37 427.24 494.68 426.81 454.00 426.95 C 448.48 427.00 442.94 426.66 437.45 427.37 C 428.68 426.19 419.82 426.85 411.00 426.68 C 389.01 426.74 367.02 426.62 345.04 426.72 C 343.09 424.69 341.18 422.54 340.15 419.88 C 339.99 417.94 339.93 416.01 339.86 414.08 C 338.49 415.41 337.11 416.73 335.75 418.06 C 333.04 418.14 330.34 418.39 327.64 418.61 C 326.37 420.90 325.37 423.48 323.36 425.26 C 320.97 426.19 318.36 426.27 315.83 426.53 C 307.84 426.73 299.85 426.98 291.85 426.89 C 292.61 425.94 293.37 424.99 294.13 424.05 C 298.66 423.97 303.18 423.58 307.68 423.00 C 308.17 418.28 308.72 413.56 308.76 408.81 C 309.92 408.86 311.09 408.91 312.27 408.96 C 311.63 413.61 311.84 418.31 311.99 422.99 C 315.18 422.44 319.07 422.92 321.61 420.57 C 324.95 415.55 324.30 409.16 324.25 403.42 C 322.23 403.57 320.21 403.72 318.19 403.91 C 317.46 403.95 316.00 404.03 315.28 404.06 C 315.83 403.05 316.40 402.05 316.97 401.04 C 317.95 400.57 318.93 400.07 319.86 399.49 C 320.09 399.30 320.53 398.91 320.75 398.71 C 321.47 398.05 322.17 397.36 322.89 396.70 C 324.44 398.24 326.69 399.64 326.83 402.06 C 327.32 406.06 327.05 410.10 327.08 414.12 C 330.08 413.95 333.79 414.56 335.90 411.85 C 338.74 408.58 341.11 403.48 338.60 399.38 C 337.71 398.69 336.80 398.03 335.89 397.40 C 336.37 397.02 337.32 396.27 337.80 395.89 C 342.73 391.00 344.67 383.79 344.77 377.01 C 345.05 365.04 337.48 353.49 326.58 348.64 C 320.90 346.12 314.49 345.11 308.34 346.31 C 303.47 347.07 299.13 349.50 294.86 351.81 C 294.47 351.90 293.70 352.07 293.31 352.16 C 294.67 349.88 296.11 347.65 297.73 345.56 C 303.85 342.30 311.00 340.72 317.88 342.01 C 320.29 342.19 323.24 343.27 325.13 341.16 C 329.37 337.40 333.12 333.13 337.23 329.23 C 341.54 325.19 345.29 320.07 351.09 318.08 C 356.88 316.02 362.86 314.47 368.46 311.87 C 356.06 305.40 342.71 300.24 331.97 291.04 C 328.91 288.40 326.60 285.06 324.38 281.72 C 317.44 281.38 310.37 280.64 303.88 278.02 C 300.43 276.61 298.67 273.09 296.91 270.05 C 288.79 254.91 284.69 237.94 282.56 221.00 C 281.74 215.80 284.94 211.18 285.11 206.08 C 285.36 201.56 284.98 197.03 285.41 192.52 C 285.76 186.41 290.08 181.63 291.73 175.90 C 294.14 167.98 298.51 160.65 299.38 152.30 C 301.49 136.94 307.98 122.78 313.16 108.32 C 313.86 107.66 314.56 107.00 315.29 106.36 C 314.55 116.33 313.77 126.33 314.01 136.34 C 316.20 133.97 318.12 131.33 319.28 128.30 C 322.08 121.27 325.01 114.28 328.74 107.69 C 331.52 102.78 336.90 100.39 341.43 97.43 C 350.60 91.63 360.37 86.88 370.10 82.10 C 382.72 76.88 395.43 71.89 408.28 67.27 C 410.90 66.40 413.58 65.72 416.28 65.09 C 413.15 69.53 409.45 73.51 406.10 77.76 C 404.03 80.59 402.28 83.64 400.65 86.73 C 406.60 84.27 412.31 81.29 418.12 78.53 C 429.25 73.64 440.02 67.92 450.31 61.45 C 458.97 56.32 466.71 49.74 473.28 42.12 M 476.04 56.87 C 476.78 60.85 478.16 64.66 479.49 68.47 C 481.60 74.55 482.50 80.95 483.75 87.24 C 486.01 98.27 484.62 109.57 485.18 120.72 C 493.00 126.59 499.37 134.01 506.29 140.86 C 508.55 139.38 510.70 137.74 512.75 135.97 C 507.59 111.54 495.90 89.08 483.15 67.82 C 480.99 64.04 479.04 60.08 476.04 56.87 M 377.65 84.64 C 363.38 90.78 349.44 97.84 336.58 106.58 C 332.39 110.58 330.92 116.55 328.75 121.76 C 337.01 116.12 345.67 111.01 354.73 106.78 C 360.76 103.79 368.11 103.04 372.85 97.85 C 380.42 89.91 389.46 83.65 398.11 76.98 C 390.95 78.52 384.36 81.82 377.65 84.64 M 361.54 114.19 L 361.51 114.82 C 353.58 117.54 346.37 121.97 339.68 126.96 C 332.41 131.37 326.55 137.65 320.84 143.85 C 314.94 150.33 314.13 159.43 310.45 167.07 C 310.13 165.00 309.83 162.93 309.51 160.87 C 307.48 163.91 305.23 167.17 305.22 170.98 C 305.39 173.97 306.47 176.80 307.28 179.66 C 310.64 190.33 310.83 201.88 315.76 212.07 C 316.97 208.06 317.57 203.88 319.01 199.94 C 319.38 198.84 320.50 198.30 321.34 197.62 C 320.04 202.47 319.16 207.43 318.46 212.39 C 317.10 221.27 321.07 229.68 322.98 238.17 C 329.10 238.29 335.23 238.45 341.33 237.98 C 338.31 235.68 335.08 233.67 331.89 231.62 C 335.55 228.90 339.93 227.36 344.41 226.65 C 347.50 226.24 350.93 225.70 353.80 227.27 C 362.61 232.40 370.68 238.94 380.16 242.86 C 385.07 245.41 390.75 246.05 395.81 248.31 C 399.66 250.11 403.90 250.60 408.11 250.12 C 415.35 251.43 421.68 247.25 428.44 245.56 C 430.95 244.79 433.59 244.26 435.89 242.93 C 445.99 239.09 454.14 231.63 463.69 226.78 C 470.72 225.38 478.12 227.76 484.22 231.27 C 481.27 233.75 478.01 235.82 474.83 237.97 C 481.05 238.43 487.31 238.57 493.52 237.88 C 494.38 233.76 495.56 229.71 496.50 225.61 C 497.90 219.52 496.59 213.27 495.64 207.23 C 492.92 193.15 486.46 179.09 474.92 170.13 C 470.77 172.01 466.77 174.23 463.00 176.79 C 445.12 186.47 429.02 199.31 415.15 214.14 C 412.97 216.55 410.51 218.65 408.09 220.80 C 407.89 182.23 408.31 143.64 407.87 105.07 C 391.95 104.49 376.44 109.04 361.54 114.19 M 477.81 158.92 C 485.17 156.48 491.81 152.26 498.09 147.78 C 494.31 141.91 488.98 137.29 483.83 132.66 C 482.09 141.48 479.83 150.17 477.81 158.92 M 509.15 167.38 C 507.76 168.27 509.22 170.64 510.58 169.50 C 511.95 168.62 510.48 166.27 509.15 167.38 M 301.66 183.28 C 303.76 187.04 303.48 191.45 304.22 195.57 C 304.83 195.72 306.05 196.00 306.66 196.15 C 305.21 190.50 304.23 184.68 301.86 179.31 C 301.51 180.62 300.72 182.02 301.66 183.28 M 297.21 207.77 C 295.63 209.22 292.62 209.93 292.18 212.15 C 291.49 212.27 290.10 212.51 289.40 212.63 C 288.08 215.91 287.52 219.46 288.05 222.99 C 289.05 231.07 290.66 239.10 293.14 246.87 C 294.86 247.03 296.59 247.20 298.33 247.37 C 300.81 255.03 303.80 262.53 307.12 269.86 C 308.03 271.55 308.76 273.55 310.41 274.66 C 312.17 275.41 314.09 275.60 315.96 275.95 C 311.91 266.11 306.39 256.85 303.90 246.40 C 308.72 244.62 313.69 243.02 317.91 239.98 C 315.11 227.78 312.15 215.46 306.87 204.06 C 303.55 205.01 300.31 206.24 297.21 207.77 M 509.20 204.05 C 504.26 215.60 500.78 227.74 498.24 240.02 C 502.63 242.68 507.44 244.50 512.24 246.29 C 510.30 253.78 506.96 260.76 504.02 267.89 C 505.64 268.56 507.26 269.22 508.88 269.89 C 512.47 262.66 515.26 255.06 517.75 247.39 C 519.88 246.92 523.29 247.72 523.77 244.79 C 525.57 238.62 526.77 232.26 527.76 225.91 C 528.34 220.75 529.23 214.21 524.14 210.96 C 522.55 210.17 520.97 209.37 519.41 208.57 L 519.53 207.79 C 516.16 206.34 512.72 205.06 509.20 204.05 M 323.84 241.20 C 328.69 244.22 334.60 243.13 340.01 243.32 C 356.41 243.50 372.87 245.71 388.56 250.58 C 391.65 251.58 394.89 251.99 398.14 252.07 C 394.47 250.01 390.46 248.69 386.42 247.59 C 372.01 243.30 356.99 241.35 341.99 240.84 C 335.94 240.69 329.83 240.08 323.84 241.20 M 426.45 248.55 C 423.48 249.45 420.61 250.64 417.84 252.06 C 424.24 252.41 430.09 249.56 436.18 248.15 C 451.48 244.41 467.29 243.01 483.01 243.33 C 486.22 243.46 489.43 242.81 492.24 241.21 C 484.87 240.14 477.40 240.70 470.00 241.03 C 455.25 241.73 440.55 244.12 426.45 248.55 M 329.96 247.32 C 327.81 258.20 329.06 269.53 331.84 280.18 C 333.04 285.61 339.78 285.58 344.09 286.97 C 348.54 288.61 353.21 289.65 357.97 289.85 L 358.14 290.53 C 368.17 291.82 378.33 292.20 388.42 291.41 C 390.60 290.98 393.66 291.11 394.74 288.73 C 396.21 285.11 396.93 281.17 397.20 277.28 C 398.20 271.03 397.85 264.68 397.52 258.40 C 395.35 257.79 393.16 257.21 390.98 256.68 C 392.34 262.77 394.94 268.49 396.56 274.51 C 394.29 274.92 392.01 275.38 389.97 276.48 C 389.14 275.56 388.31 274.65 387.48 273.74 C 388.58 272.99 389.54 272.05 390.54 271.17 C 389.94 269.71 389.35 268.25 388.76 266.79 C 387.93 267.64 387.10 268.50 386.30 269.38 C 385.75 267.89 385.22 266.40 384.68 264.92 C 385.74 263.25 386.30 261.34 386.98 259.50 C 386.03 259.77 384.68 259.57 384.18 260.64 C 382.82 258.05 381.86 255.20 380.02 252.91 C 377.58 251.64 374.78 251.45 372.13 250.98 C 373.51 256.43 375.48 261.70 377.12 267.08 C 372.06 268.44 368.83 263.74 364.86 261.68 C 365.51 268.42 373.20 270.41 378.88 269.99 C 379.01 270.81 379.27 272.44 379.41 273.25 C 374.91 274.64 369.78 273.80 366.01 270.97 C 362.61 268.58 361.08 264.56 359.10 261.09 C 359.46 260.80 360.19 260.21 360.56 259.91 C 362.50 259.81 364.49 259.85 366.39 259.36 C 368.16 258.48 369.03 256.54 370.20 255.04 C 366.22 253.86 362.22 252.73 358.15 251.91 C 355.22 247.62 349.65 248.29 345.12 247.96 C 340.60 247.66 336.03 247.39 331.55 248.26 C 331.15 248.02 330.36 247.55 329.96 247.32 M 453.52 249.44 C 453.33 250.61 453.16 251.78 452.99 252.96 C 450.70 253.51 448.46 254.26 446.24 255.03 C 447.26 256.50 447.81 258.63 449.65 259.31 C 451.54 259.82 453.53 259.79 455.49 259.91 C 455.87 260.23 456.65 260.87 457.03 261.18 C 455.10 264.96 453.25 269.14 449.48 271.45 C 444.54 274.69 438.20 273.92 432.90 272.05 C 431.04 270.25 429.09 268.56 427.10 266.93 C 426.66 268.62 426.23 270.32 425.81 272.03 C 427.02 272.62 428.22 273.28 429.50 273.75 C 434.28 276.46 439.90 278.49 445.44 277.23 C 450.29 275.91 455.07 273.60 458.38 269.71 C 459.43 271.20 460.46 272.71 461.48 274.23 L 460.96 274.87 C 456.96 277.19 452.77 279.14 448.51 280.92 C 442.50 279.97 436.04 281.38 430.42 278.53 C 427.00 276.76 423.57 274.85 419.65 274.47 C 421.58 268.48 423.71 262.57 425.75 256.61 C 423.30 257.10 420.88 257.69 418.49 258.38 C 418.19 264.67 417.61 271.05 418.82 277.29 C 418.92 280.95 419.65 284.63 420.98 288.05 C 421.94 291.17 425.75 291.07 428.40 291.50 C 438.29 292.03 448.35 292.29 458.08 290.11 C 460.92 289.71 463.75 289.28 466.58 288.79 C 471.22 287.40 475.99 286.37 480.47 284.49 C 484.38 283.26 484.85 278.54 485.37 275.10 C 487.44 266.23 487.65 257.02 486.64 247.99 C 483.40 247.70 480.15 247.63 476.91 247.81 C 475.16 247.79 473.41 247.77 471.67 247.75 C 465.61 248.28 459.54 248.65 453.52 249.44 M 431.12 254.00 C 431.09 255.61 431.00 257.22 431.08 258.83 C 429.06 262.47 432.16 265.93 434.89 268.10 C 440.30 272.69 450.40 268.81 451.13 261.71 C 448.80 263.09 446.86 264.99 444.81 266.74 C 440.33 263.27 440.25 257.11 438.49 252.15 C 436.01 252.70 433.56 253.32 431.12 254.00 M 405.47 253.91 C 406.46 255.35 407.47 256.78 408.49 258.20 C 409.13 256.71 409.77 255.22 410.40 253.73 C 408.75 253.77 407.11 253.83 405.47 253.91 M 408.92 263.72 C 410.30 263.83 411.68 263.95 413.07 264.07 C 413.40 261.02 413.65 257.96 413.72 254.90 C 411.21 257.26 409.56 260.33 408.92 263.72 M 403.06 256.83 C 402.22 257.79 402.24 258.70 403.14 259.56 C 403.03 261.10 402.92 262.65 402.83 264.20 C 404.23 264.04 405.63 263.87 407.04 263.71 C 406.64 262.11 406.25 260.51 405.83 258.92 L 405.05 259.13 C 405.71 258.02 404.30 256.12 403.06 256.83 M 402.96 267.86 C 402.36 275.73 401.93 283.79 399.23 291.29 C 398.54 293.40 396.83 295.10 394.62 295.55 C 384.68 297.98 374.36 296.31 364.27 296.97 C 363.09 296.04 361.49 296.07 360.10 295.78 C 354.67 295.14 349.37 293.72 343.95 293.03 C 354.08 299.84 365.41 304.58 376.58 309.40 C 386.69 313.34 396.96 317.64 407.90 318.49 C 411.03 318.30 414.18 318.05 417.22 317.22 C 430.44 313.67 443.09 308.31 455.44 302.48 C 461.20 299.65 467.14 297.02 472.22 293.04 C 465.39 293.98 458.62 295.37 451.84 296.61 C 443.09 296.76 434.31 297.32 425.59 296.37 C 422.42 295.93 418.36 295.36 417.14 291.87 C 414.06 284.27 413.86 275.93 413.04 267.88 C 411.39 267.78 409.74 267.70 408.10 267.62 C 406.38 267.69 404.67 267.77 402.96 267.86 M 370.46 315.73 C 375.21 324.37 381.39 332.56 389.73 338.01 C 392.63 332.71 395.58 327.44 398.70 322.26 C 391.27 320.41 384.06 317.88 376.97 315.03 C 374.78 313.88 372.50 314.70 370.46 315.73 M 434.83 316.74 C 429.23 319.09 423.22 320.25 417.66 322.69 C 420.54 327.79 423.42 332.90 426.27 338.02 C 434.58 332.59 441.07 324.56 445.51 315.73 C 442.08 313.22 438.23 315.45 434.83 316.74 M 354.21 322.36 C 357.47 326.31 361.52 330.11 362.53 335.37 C 363.50 340.86 362.93 346.46 363.04 352.00 C 363.14 364.95 362.88 377.89 363.16 390.83 C 372.02 391.05 380.88 391.06 389.74 390.83 C 388.85 387.61 388.87 384.23 389.98 381.07 C 393.45 367.12 397.04 353.14 398.90 338.88 C 399.52 336.71 397.40 335.65 395.97 334.60 C 394.13 337.33 392.38 340.13 390.71 342.97 C 381.10 336.74 373.26 328.11 367.75 318.10 C 363.17 319.30 358.67 320.78 354.21 322.36 M 402.33 324.17 C 400.23 326.20 398.40 328.84 398.02 331.80 C 400.67 334.21 404.16 335.33 407.48 336.48 L 407.42 337.21 C 410.62 335.89 414.01 334.86 416.82 332.77 C 419.72 330.93 416.43 327.73 415.25 325.78 C 413.79 323.17 410.60 323.72 408.10 323.57 C 406.18 323.76 404.12 323.35 402.33 324.17 M 342.76 330.76 C 338.29 335.50 333.29 339.72 329.08 344.71 C 333.84 347.91 338.66 351.23 342.14 355.87 C 346.76 361.59 348.42 368.94 349.36 376.06 C 352.33 372.08 355.54 368.17 357.59 363.61 C 358.91 359.20 358.10 354.52 358.26 350.00 C 358.09 344.88 358.93 339.58 357.41 334.60 C 355.71 330.74 352.82 327.17 349.02 325.23 C 346.59 326.64 344.72 328.78 342.76 330.76 M 402.41 339.05 C 400.28 353.96 396.69 368.61 393.17 383.24 C 392.38 385.61 393.17 387.99 393.96 390.24 L 394.25 390.87 C 403.47 390.72 412.69 390.78 421.91 390.73 C 422.87 388.34 423.89 385.75 423.02 383.16 C 419.41 368.63 415.96 354.06 413.69 339.25 C 411.34 339.49 408.99 339.71 406.64 339.90 C 405.22 339.61 403.82 339.33 402.41 339.05 M 474.96 362.53 C 479.68 362.35 484.51 362.53 488.92 364.42 C 490.26 361.02 491.05 357.23 493.43 354.37 C 499.22 350.57 506.69 350.92 513.21 352.31 C 514.28 352.81 515.37 353.30 516.42 353.88 C 515.76 354.23 514.45 354.93 513.79 355.27 C 508.20 353.14 502.07 354.57 496.26 354.71 C 493.07 359.01 491.46 364.22 490.31 369.38 C 489.49 372.71 490.85 375.98 491.76 379.13 C 493.13 383.60 493.44 388.29 494.09 392.90 C 502.67 393.42 511.27 393.23 519.86 393.02 C 519.51 392.05 519.15 391.09 518.81 390.14 C 513.78 390.45 508.64 390.89 503.74 389.41 C 505.21 389.16 506.69 388.92 508.18 388.70 C 512.41 389.17 516.65 388.34 520.78 387.47 C 520.98 388.92 521.18 390.37 521.46 391.82 C 521.26 392.53 520.85 393.94 520.65 394.64 C 511.14 394.98 501.61 394.19 492.12 394.99 C 492.23 391.62 491.74 388.27 491.41 384.93 C 490.67 381.27 489.93 377.36 487.66 374.31 C 483.77 371.90 478.87 372.90 474.52 372.64 C 473.14 373.21 471.74 373.72 470.45 374.47 C 469.47 375.91 469.15 377.67 468.62 379.31 C 469.15 379.43 470.22 379.67 470.76 379.78 C 470.77 384.86 470.37 390.01 471.34 395.03 L 470.65 395.43 C 463.78 394.65 456.88 395.17 450.00 395.11 C 436.03 395.14 422.07 394.88 408.10 395.09 C 389.39 394.89 370.67 395.16 351.96 394.96 C 349.20 394.98 345.06 395.01 344.66 398.60 C 343.84 405.81 344.51 413.11 344.39 420.36 C 345.22 421.05 346.08 421.71 346.96 422.35 C 349.95 422.85 352.98 423.02 356.00 422.97 C 425.00 422.70 494.00 422.71 563.00 422.76 C 566.76 422.70 570.64 423.20 574.33 422.24 C 577.67 420.11 576.42 415.39 576.86 412.05 C 576.41 412.06 575.50 412.09 575.04 412.10 C 571.54 409.41 567.69 407.25 563.83 405.14 C 557.28 401.57 551.04 397.45 544.22 394.40 C 543.93 394.59 543.35 394.96 543.07 395.15 C 543.02 391.70 542.70 388.26 542.32 384.84 C 541.97 381.60 541.39 378.21 539.58 375.45 C 535.94 372.84 531.06 373.66 526.86 373.87 C 525.29 374.05 523.73 374.23 522.17 374.41 C 521.84 373.24 521.52 372.08 521.20 370.92 C 520.81 366.98 519.33 363.28 517.67 359.73 C 518.77 359.04 519.86 358.34 520.97 357.64 C 522.04 362.31 522.77 367.06 524.18 371.65 C 527.12 371.43 530.05 371.18 532.99 370.87 C 531.18 361.33 524.69 352.79 515.73 348.91 C 501.36 341.36 482.10 348.15 474.96 362.53 M 466.38 368.52 C 465.34 370.19 467.25 371.47 467.97 372.82 C 474.79 370.72 481.98 370.35 488.95 371.89 C 487.53 369.27 486.63 365.18 482.97 365.10 C 477.30 364.41 471.25 365.47 466.38 368.52 M 346.54 390.75 C 350.39 390.85 354.24 390.84 358.10 390.78 C 358.40 384.46 358.47 378.12 358.02 371.80 C 353.76 377.80 348.81 383.63 346.54 390.75 M 438.90 379.88 C 434.88 382.93 434.93 388.72 435.78 393.24 C 443.21 393.36 450.65 393.56 458.08 393.07 C 458.35 389.49 458.43 385.90 458.45 382.32 L 457.78 382.52 C 456.94 381.51 456.02 380.60 455.02 379.80 C 449.69 379.22 444.17 378.69 438.90 379.88 Z"></path>
    <path fill="#25252d" opacity="1.00" d=" M 475.17 306.02 C 476.57 302.80 479.63 300.82 482.22 298.63 C 484.89 300.94 487.00 303.79 488.57 306.94 C 484.21 310.33 479.44 313.19 474.29 315.20 C 474.35 312.14 474.01 308.93 475.17 306.02 Z"></path>
  </g>
  <g id="#fbb41aff" transform="matrix(1.006108, 0, 0, 1.006108, -156.58699, 7.429187)" style="">
    <path fill="#fbb41a" opacity="1.00" d=" M 385.19 58.10 C 392.77 57.36 400.36 56.17 407.99 56.66 C 408.08 60.20 408.17 63.73 408.28 67.27 C 395.43 71.89 382.72 76.88 370.10 82.10 C 356.91 85.11 344.23 90.11 332.14 96.13 C 326.32 99.18 320.38 102.16 315.29 106.36 C 314.56 107.00 313.86 107.66 313.16 108.32 C 310.90 109.66 308.55 110.87 306.42 112.42 C 282.03 131.36 262.72 156.96 252.01 185.99 C 242.02 212.25 239.24 241.06 243.16 268.82 C 247.44 298.30 260.03 326.30 278.47 349.63 C 270.49 349.70 262.21 349.88 255.00 353.74 C 241.73 335.15 231.96 314.14 226.03 292.09 C 215.26 250.00 219.06 204.13 237.80 164.82 C 260.91 114.82 307.18 76.11 360.63 62.61 C 368.65 60.31 376.95 59.28 385.19 58.10 Z"></path>
    <path fill="#fbb41a" opacity="1.00" d=" M 335.75 418.06 C 337.11 416.73 338.49 415.41 339.86 414.08 C 339.93 416.01 339.99 417.94 340.15 419.88 C 338.69 419.24 337.23 418.61 335.75 418.06 Z"></path>
  </g>
  <g id="#d59229ff" transform="matrix(1.006108, 0, 0, 1.006108, -156.58699, 7.429187)" style="">
    <path fill="#d59229" opacity="1.00" d=" M 407.99 56.66 C 422.22 56.28 436.51 58.01 450.31 61.45 C 440.02 67.92 429.25 73.64 418.12 78.53 C 414.12 78.17 410.12 77.77 406.10 77.76 C 409.45 73.51 413.15 69.53 416.28 65.09 C 413.58 65.72 410.90 66.40 408.28 67.27 C 408.17 63.73 408.08 60.20 407.99 56.66 Z"></path>
    <path fill="#d59229" opacity="1.00" d=" M 495.00 78.00 C 525.28 93.26 550.81 117.59 568.54 146.43 C 584.18 171.86 593.51 201.10 595.59 230.88 C 596.95 240.86 596.55 250.96 595.33 260.93 C 592.38 298.37 577.37 334.59 553.62 363.62 C 550.70 367.23 547.64 370.75 544.25 373.92 C 541.40 371.79 537.97 369.99 536.45 366.60 C 534.75 363.13 533.47 359.43 531.29 356.21 C 541.45 346.32 549.09 334.14 555.83 321.76 C 574.11 287.00 579.59 245.65 570.61 207.39 C 563.18 174.28 545.17 143.72 520.02 120.97 C 517.52 118.71 514.77 116.74 512.15 114.63 C 507.23 102.06 501.64 89.76 495.00 78.00 Z"></path>
  </g>
  <g id="#2b313dff" transform="matrix(1.006108, 0, 0, 1.006108, -156.58699, 7.429187)" style="">
    <path fill="#2b313d" opacity="1.00" d=" M 476.04 56.87 C 479.04 60.08 480.99 64.04 483.15 67.82 C 495.90 89.08 507.59 111.54 512.75 135.97 C 510.70 137.74 508.55 139.38 506.29 140.86 C 499.37 134.01 493.00 126.59 485.18 120.72 C 484.62 109.57 486.01 98.27 483.75 87.24 C 482.50 80.95 481.60 74.55 479.49 68.47 C 478.16 64.66 476.78 60.85 476.04 56.87 Z"></path>
    <path fill="#2b313d" opacity="1.00" d=" M 361.54 114.19 C 376.44 109.04 391.95 104.49 407.87 105.07 C 408.31 143.64 407.89 182.23 408.09 220.80 L 407.62 221.28 C 399.08 211.24 390.10 201.50 380.02 192.98 C 372.24 186.53 363.60 181.22 354.72 176.46 C 350.32 174.06 345.76 171.99 341.10 170.17 C 335.62 174.23 330.39 178.86 326.76 184.70 C 324.39 188.75 322.86 193.21 321.34 197.62 C 320.50 198.30 319.38 198.84 319.01 199.94 C 317.57 203.88 316.97 208.06 315.76 212.07 C 310.83 201.88 310.64 190.33 307.28 179.66 C 306.47 176.80 305.39 173.97 305.22 170.98 C 305.23 167.17 307.48 163.91 309.51 160.87 C 309.83 162.93 310.13 165.00 310.45 167.07 C 314.13 159.43 314.94 150.33 320.84 143.85 C 326.55 137.65 332.41 131.37 339.68 126.96 C 345.18 139.62 352.43 151.93 362.92 161.09 C 362.28 153.90 360.96 146.78 360.44 139.58 C 359.79 131.30 361.42 123.08 361.51 114.82 L 361.54 114.19 Z"></path>
    <path fill="#2b313d" opacity="1.00" d=" M 477.81 158.92 C 479.83 150.17 482.09 141.48 483.83 132.66 C 488.98 137.29 494.31 141.91 498.09 147.78 C 491.81 152.26 485.17 156.48 477.81 158.92 Z"></path>
    <path fill="#2b313d" opacity="1.00" d=" M 353.64 397.71 C 358.04 396.86 362.55 397.40 367.00 397.34 C 374.11 397.53 381.27 396.79 388.35 397.82 C 388.28 399.90 388.20 401.98 388.13 404.06 C 376.69 404.63 365.23 404.32 353.79 404.24 C 353.45 402.10 352.60 399.79 353.64 397.71 Z"></path>
  </g>
  <g id="#353b47ff" transform="matrix(1.006108, 0, 0, 1.006108, -156.58699, 7.429187)" style="">
    <path fill="#353b47" opacity="1.00" d=" M 377.65 84.64 C 384.36 81.82 390.95 78.52 398.11 76.98 C 389.46 83.65 380.42 89.91 372.85 97.85 C 368.11 103.04 360.76 103.79 354.73 106.78 C 345.67 111.01 337.01 116.12 328.75 121.76 C 330.92 116.55 332.39 110.58 336.58 106.58 C 349.44 97.84 363.38 90.78 377.65 84.64 Z"></path>
    <path fill="#353b47" opacity="1.00" d=" M 339.68 126.96 C 346.37 121.97 353.58 117.54 361.51 114.82 C 361.42 123.08 359.79 131.30 360.44 139.58 C 360.96 146.78 362.28 153.90 362.92 161.09 C 352.43 151.93 345.18 139.62 339.68 126.96 Z"></path>
    <path fill="#353b47" opacity="1.00" d=" M 297.21 207.77 C 300.31 206.24 303.55 205.01 306.87 204.06 C 312.15 215.46 315.11 227.78 317.91 239.98 C 313.69 243.02 308.72 244.62 303.90 246.40 C 303.80 246.07 303.60 245.40 303.50 245.07 C 299.62 233.01 298.05 220.37 297.21 207.77 Z"></path>
    <path fill="#353b47" opacity="1.00" d=" M 509.20 204.05 C 512.72 205.06 516.16 206.34 519.53 207.79 L 519.41 208.57 C 517.74 220.79 516.59 233.18 512.65 244.95 C 512.55 245.28 512.35 245.95 512.24 246.29 C 507.44 244.50 502.63 242.68 498.24 240.02 C 500.78 227.74 504.26 215.60 509.20 204.05 Z"></path>
    <path fill="#353b47" opacity="1.00" d=" M 434.83 316.74 C 438.23 315.45 442.08 313.22 445.51 315.73 C 441.07 324.56 434.58 332.59 426.27 338.02 C 423.42 332.90 420.54 327.79 417.66 322.69 C 423.22 320.25 429.23 319.09 434.83 316.74 Z"></path>
    <path fill="#353b47" opacity="1.00" d=" M 354.21 322.36 C 358.67 320.78 363.17 319.30 367.75 318.10 C 373.26 328.11 381.10 336.74 390.71 342.97 C 392.38 340.13 394.13 337.33 395.97 334.60 C 397.40 335.65 399.52 336.71 398.90 338.88 C 397.04 353.14 393.45 367.12 389.98 381.07 C 388.87 384.23 388.85 387.61 389.74 390.83 C 380.88 391.06 372.02 391.05 363.16 390.83 C 362.88 377.89 363.14 364.95 363.04 352.00 C 362.93 346.46 363.50 340.86 362.53 335.37 C 361.52 330.11 357.47 326.31 354.21 322.36 Z"></path>
    <path fill="#353b47" opacity="1.00" d=" M 342.76 330.76 C 344.72 328.78 346.59 326.64 349.02 325.23 C 352.82 327.17 355.71 330.74 357.41 334.60 C 358.93 339.58 358.09 344.88 358.26 350.00 C 358.10 354.52 358.91 359.20 357.59 363.61 C 355.54 368.17 352.33 372.08 349.36 376.06 C 348.42 368.94 346.76 361.59 342.14 355.87 C 338.66 351.23 333.84 347.91 329.08 344.71 C 333.29 339.72 338.29 335.50 342.76 330.76 Z"></path>
  </g>
  <g id="#c3c2c0ff" transform="matrix(1.006108, 0, 0, 1.006108, -156.58699, 7.429187)" style="">
    <path fill="#c3c2c0" opacity="1.00" d=" M 452.99 252.96 C 456.56 252.10 460.20 251.51 463.84 250.96 C 463.80 255.69 463.57 260.55 461.63 264.93 C 460.10 263.67 458.56 262.43 457.03 261.18 C 456.65 260.87 455.87 260.23 455.49 259.91 C 453.53 259.79 451.54 259.82 449.65 259.31 C 447.81 258.63 447.26 256.50 446.24 255.03 C 448.46 254.26 450.70 253.51 452.99 252.96 Z"></path>
  </g>
  <g id="#f79e74ff" transform="matrix(1.006108, 0, 0, 1.006108, -156.58699, 7.429187)" style="">
    <path fill="#f79e74" opacity="1.00" d=" M 341.10 170.17 C 345.76 171.99 350.32 174.06 354.72 176.46 C 346.41 184.11 344.68 196.34 344.59 207.07 C 344.32 210.41 346.25 213.26 348.84 215.16 C 359.73 223.87 370.19 233.11 380.16 242.86 C 370.68 238.94 362.61 232.40 353.80 227.27 C 350.93 225.70 347.50 226.24 344.41 226.65 C 339.93 227.36 335.55 228.90 331.89 231.62 C 335.08 233.67 338.31 235.68 341.33 237.98 C 335.23 238.45 329.10 238.29 322.98 238.17 C 321.07 229.68 317.10 221.27 318.46 212.39 C 319.16 207.43 320.04 202.47 321.34 197.62 C 322.86 193.21 324.39 188.75 326.76 184.70 C 330.39 178.86 335.62 174.23 341.10 170.17 Z"></path>
    <path fill="#f79e74" opacity="1.00" d=" M 415.15 214.14 C 429.02 199.31 445.12 186.47 463.00 176.79 C 469.44 186.13 472.50 197.62 471.68 208.93 C 471.66 211.78 469.24 213.62 467.29 215.30 C 456.34 223.95 446.11 233.46 435.89 242.93 C 433.59 244.26 430.95 244.79 428.44 245.56 C 421.68 247.25 415.35 251.43 408.11 250.12 C 408.08 240.50 408.62 230.86 407.62 221.28 L 408.09 220.80 C 410.51 218.65 412.97 216.55 415.15 214.14 Z"></path>
    <path fill="#f79e74" opacity="1.00" d=" M 329.96 247.32 C 330.36 247.55 331.15 248.02 331.55 248.26 C 335.42 261.26 340.67 273.83 344.09 286.97 C 339.78 285.58 333.04 285.61 331.84 280.18 C 329.06 269.53 327.81 258.20 329.96 247.32 Z"></path>
    <path fill="#f79e74" opacity="1.00" d=" M 408.10 267.62 C 409.74 267.70 411.39 267.78 413.04 267.88 C 413.86 275.93 414.06 284.27 417.14 291.87 C 418.36 295.36 422.42 295.93 425.59 296.37 C 434.31 297.32 443.09 296.76 451.84 296.61 C 450.06 299.37 447.17 301.03 444.18 302.19 C 432.62 306.92 420.94 311.85 408.45 313.45 C 408.26 315.12 408.07 316.80 407.90 318.49 C 396.96 317.64 386.69 313.34 376.58 309.40 C 365.41 304.58 354.08 299.84 343.95 293.03 C 349.37 293.72 354.67 295.14 360.10 295.78 C 361.49 296.07 363.09 296.04 364.27 296.97 C 369.65 301.89 376.74 304.00 383.37 306.65 C 391.24 309.57 399.20 312.84 407.72 312.99 C 408.41 306.60 408.72 300.10 407.35 293.77 C 410.16 293.06 412.82 291.82 414.66 289.51 C 411.73 289.34 408.80 289.20 405.87 289.32 C 406.33 289.19 407.25 288.92 407.71 288.79 C 408.59 281.76 408.09 274.67 408.10 267.62 Z"></path>
    <path fill="#f79e74" opacity="1.00" d=" M 474.96 362.53 C 482.10 348.15 501.36 341.36 515.73 348.91 C 514.89 350.04 514.05 351.18 513.21 352.31 C 506.69 350.92 499.22 350.57 493.43 354.37 C 491.05 357.23 490.26 361.02 488.92 364.42 C 484.51 362.53 479.68 362.35 474.96 362.53 Z"></path>
    <path fill="#f79e74" opacity="1.00" d=" M 326.58 348.64 C 337.48 353.49 345.05 365.04 344.77 377.01 C 344.67 383.79 342.73 391.00 337.80 395.89 C 332.04 392.39 327.76 386.73 321.22 384.49 C 320.41 377.96 319.63 371.41 318.09 365.01 C 318.45 365.47 319.19 366.40 319.55 366.87 C 323.92 361.76 326.67 355.45 326.58 348.64 Z"></path>
    <path fill="#f79e74" opacity="1.00" d=" M 502.81 359.64 C 507.74 358.91 512.74 359.13 517.67 359.73 C 519.33 363.28 520.81 366.98 521.20 370.92 C 521.55 373.94 521.76 376.98 522.01 380.02 C 516.76 382.42 510.94 382.01 505.51 380.51 C 503.45 373.74 503.14 366.66 502.81 359.64 Z"></path>
    <path fill="#f79e74" opacity="1.00" d=" M 474.52 372.64 C 478.87 372.90 483.77 371.90 487.66 374.31 C 489.93 377.36 490.67 381.27 491.41 384.93 C 490.89 386.73 491.24 389.40 489.15 390.23 C 486.15 391.67 482.68 391.96 479.41 391.55 C 477.73 391.24 475.50 390.80 475.15 388.81 C 473.36 383.60 474.08 378.01 474.52 372.64 Z"></path>
    <path fill="#f79e74" opacity="1.00" d=" M 526.86 373.87 C 531.06 373.66 535.94 372.84 539.58 375.45 C 541.39 378.21 541.97 381.60 542.32 384.84 C 542.40 387.93 542.24 391.03 542.09 394.12 C 537.60 394.87 533.01 394.84 528.57 393.78 C 528.37 387.12 527.94 380.45 526.86 373.87 Z"></path>
    <path fill="#f79e74" opacity="1.00" d=" M 239.91 388.26 C 244.27 386.38 248.66 384.56 253.09 382.86 C 253.59 385.55 254.25 388.21 254.91 390.86 C 250.63 393.12 246.38 395.43 242.13 397.75 C 241.30 394.60 240.56 391.44 239.91 388.26 Z"></path>
  </g>
  <g id="#cb735fff" transform="matrix(1.006108, 0, 0, 1.006108, -156.58699, 7.429187)" style="">
    <path fill="#cb735f" opacity="1.00" d=" M 463.00 176.79 C 466.77 174.23 470.77 172.01 474.92 170.13 C 486.46 179.09 492.92 193.15 495.64 207.23 C 496.59 213.27 497.90 219.52 496.50 225.61 C 495.56 229.71 494.38 233.76 493.52 237.88 C 487.31 238.57 481.05 238.43 474.83 237.97 C 478.01 235.82 481.27 233.75 484.22 231.27 C 478.12 227.76 470.72 225.38 463.69 226.78 C 454.14 231.63 445.99 239.09 435.89 242.93 C 446.11 233.46 456.34 223.95 467.29 215.30 C 469.24 213.62 471.66 211.78 471.68 208.93 C 472.50 197.62 469.44 186.13 463.00 176.79 Z"></path>
    <path fill="#cb735f" opacity="1.00" d=" M 476.91 247.81 C 480.15 247.63 483.40 247.70 486.64 247.99 C 487.65 257.02 487.44 266.23 485.37 275.10 C 483.32 265.78 479.39 257.01 476.91 247.81 Z"></path>
    <path fill="#cb735f" opacity="1.00" d=" M 448.51 280.92 C 452.77 279.14 456.96 277.19 460.96 274.87 C 462.15 279.75 463.83 284.55 466.58 288.79 C 463.75 289.28 460.92 289.71 458.08 290.11 C 458.94 286.79 459.81 283.48 460.72 280.18 C 456.69 280.87 452.59 281.45 448.51 280.92 Z"></path>
    <path fill="#cb735f" opacity="1.00" d=" M 496.72 367.29 C 497.77 364.06 498.95 360.30 502.81 359.64 C 503.14 366.66 503.45 373.74 505.51 380.51 C 510.94 382.01 516.76 382.42 522.01 380.02 C 521.76 376.98 521.55 373.94 521.20 370.92 C 521.52 372.08 521.84 373.24 522.17 374.41 C 523.73 374.23 525.29 374.05 526.86 373.87 C 527.94 380.45 528.37 387.12 528.57 393.78 C 533.01 394.84 537.60 394.87 542.09 394.12 C 542.24 391.03 542.40 387.93 542.32 384.84 C 542.70 388.26 543.02 391.70 543.07 395.15 C 541.97 397.05 541.30 399.32 539.60 400.78 C 535.41 402.06 530.73 401.80 526.59 400.46 C 522.98 399.23 522.15 395.09 521.46 391.82 C 521.18 390.37 520.98 388.92 520.78 387.47 C 516.65 388.34 512.41 389.17 508.18 388.70 C 505.87 388.09 502.58 387.98 501.74 385.28 C 499.74 379.29 500.18 372.86 499.83 366.65 C 498.79 366.86 497.75 367.07 496.72 367.29 Z"></path>
    <path fill="#cb735f" opacity="1.00" d=" M 298.31 366.26 C 301.74 364.78 305.61 365.26 309.23 365.59 C 306.75 365.53 304.27 365.61 301.80 365.67 C 301.01 370.92 300.09 376.36 301.44 381.59 C 301.79 383.20 303.69 383.65 305.04 384.11 C 309.09 385.34 313.29 384.28 317.22 383.14 C 317.30 380.35 317.41 377.56 317.36 374.77 C 317.95 379.76 318.58 385.03 316.92 389.89 C 315.85 393.56 311.37 392.97 308.41 393.72 C 308.54 394.35 308.67 394.98 308.81 395.61 C 307.82 396.09 306.84 396.56 305.86 397.05 C 305.65 396.78 305.25 396.26 305.05 395.99 C 302.72 393.64 299.70 392.03 297.61 389.46 C 296.01 384.01 298.06 378.29 297.03 372.77 C 296.73 370.57 295.77 367.53 298.31 366.26 Z"></path>
    <path fill="#cb735f" opacity="1.00" d=" M 470.45 374.47 C 471.74 373.72 473.14 373.21 474.52 372.64 C 474.08 378.01 473.36 383.60 475.15 388.81 C 475.50 390.80 477.73 391.24 479.41 391.55 C 482.68 391.96 486.15 391.67 489.15 390.23 C 491.24 389.40 490.89 386.73 491.41 384.93 C 491.74 388.27 492.23 391.62 492.12 394.99 C 490.97 397.12 489.70 399.81 486.96 400.05 C 482.83 400.74 478.47 400.77 474.45 399.51 C 472.49 398.92 472.07 396.66 471.34 395.03 C 470.37 390.01 470.77 384.86 470.76 379.78 C 470.22 379.67 469.15 379.43 468.62 379.31 C 469.15 377.67 469.47 375.91 470.45 374.47 Z"></path>
    <path fill="#cb735f" opacity="1.00" d=" M 438.90 379.88 C 444.17 378.69 449.69 379.22 455.02 379.80 C 450.14 379.64 445.26 379.76 440.40 380.13 C 443.99 386.39 452.15 384.18 457.78 382.52 L 458.45 382.32 C 458.43 385.90 458.35 389.49 458.08 393.07 C 450.65 393.56 443.21 393.36 435.78 393.24 C 434.93 388.72 434.88 382.93 438.90 379.88 Z"></path>
    <path fill="#cb735f" opacity="1.00" d=" M 319.63 393.93 C 320.32 393.31 321.02 392.70 321.73 392.11 C 325.80 396.87 331.83 403.08 338.60 399.38 C 341.11 403.48 338.74 408.58 335.90 411.85 C 333.79 414.56 330.08 413.95 327.08 414.12 C 327.05 410.10 327.32 406.06 326.83 402.06 C 326.69 399.64 324.44 398.24 322.89 396.70 C 321.81 395.76 320.72 394.85 319.63 393.93 Z"></path>
  </g>
  <g id="#fdcf94ff" transform="matrix(1.006108, 0, 0, 1.006108, -156.58699, 7.429187)" style="">
    <path fill="#fdcf94" opacity="1.00" d=" M 344.59 207.07 C 344.68 196.34 346.41 184.11 354.72 176.46 C 363.60 181.22 372.24 186.53 380.02 192.98 C 390.10 201.50 399.08 211.24 407.62 221.28 C 408.62 230.86 408.08 240.50 408.11 250.12 C 403.90 250.60 399.66 250.11 395.81 248.31 C 390.75 246.05 385.07 245.41 380.16 242.86 C 370.19 233.11 359.73 223.87 348.84 215.16 C 346.25 213.26 344.32 210.41 344.59 207.07 Z"></path>
    <path fill="#fdcf94" opacity="1.00" d=" M 402.96 267.86 C 404.67 267.77 406.38 267.69 408.10 267.62 C 408.09 274.67 408.59 281.76 407.71 288.79 C 407.25 288.92 406.33 289.19 405.87 289.32 C 404.43 289.44 403.00 289.57 401.56 289.69 C 403.48 291.07 405.41 292.42 407.35 293.77 C 408.72 300.10 408.41 306.60 407.72 312.99 C 399.20 312.84 391.24 309.57 383.37 306.65 C 376.74 304.00 369.65 301.89 364.27 296.97 C 374.36 296.31 384.68 297.98 394.62 295.55 C 396.83 295.10 398.54 293.40 399.23 291.29 C 401.93 283.79 402.36 275.73 402.96 267.86 Z"></path>
    <path fill="#fdcf94" opacity="1.00" d=" M 308.34 346.31 C 314.49 345.11 320.90 346.12 326.58 348.64 C 326.67 355.45 323.92 361.76 319.55 366.87 C 319.19 366.40 318.45 365.47 318.09 365.01 C 313.71 358.49 305.19 357.33 297.95 357.21 C 293.37 356.62 290.70 360.92 287.50 363.36 C 287.30 358.28 291.70 355.09 294.86 351.81 C 299.13 349.50 303.47 347.07 308.34 346.31 Z"></path>
    <path fill="#fdcf94" opacity="1.00" d=" M 258.88 358.87 C 263.08 357.10 267.76 357.68 272.20 357.57 C 272.15 363.91 273.10 370.39 271.66 376.64 C 271.12 379.14 268.25 379.73 266.15 380.27 C 262.33 381.27 258.42 380.42 254.76 379.25 C 254.73 377.18 254.70 375.11 254.73 373.05 C 254.78 369.45 255.21 365.82 256.31 362.38 C 256.78 361.00 257.35 359.38 258.88 358.87 Z"></path>
    <path fill="#fdcf94" opacity="1.00" d=" M 301.80 365.67 C 304.27 365.61 306.75 365.53 309.23 365.59 C 311.29 365.88 313.61 366.29 315.08 367.91 C 316.51 369.90 316.99 372.39 317.36 374.77 C 317.41 377.56 317.30 380.35 317.22 383.14 C 313.29 384.28 309.09 385.34 305.04 384.11 C 303.69 383.65 301.79 383.20 301.44 381.59 C 300.09 376.36 301.01 370.92 301.80 365.67 Z"></path>
  </g>
  <g id="#fdc240ff" transform="matrix(1.006108, 0, 0, 1.006108, -156.58699, 7.429187)" style="">
    <path fill="#fdc240" opacity="1.00" d=" M 292.18 212.15 C 292.62 209.93 295.63 209.22 297.21 207.77 C 298.05 220.37 299.62 233.01 303.50 245.07 C 301.78 245.85 300.06 246.62 298.33 247.37 C 295.28 235.84 292.46 224.12 292.18 212.15 Z"></path>
  </g>
  <g id="#fec240ff" transform="matrix(1.006108, 0, 0, 1.006108, -156.58699, 7.429187)" style="">
    <path fill="#fec240" opacity="1.00" d=" M 512.65 244.95 C 516.59 233.18 517.74 220.79 519.41 208.57 C 520.97 209.37 522.55 210.17 524.14 210.96 C 523.42 223.30 521.23 235.52 517.75 247.39 C 516.04 246.58 514.34 245.77 512.65 244.95 Z"></path>
  </g>
  <g id="#353c4cff" transform="matrix(1.006108, 0, 0, 1.006108, -156.58699, 7.429187)" style="">
    <path fill="#353c4c" opacity="1.00" d=" M 524.14 210.96 C 529.23 214.21 528.34 220.75 527.76 225.91 C 526.77 232.26 525.57 238.62 523.77 244.79 C 523.29 247.72 519.88 246.92 517.75 247.39 C 521.23 235.52 523.42 223.30 524.14 210.96 Z"></path>
  </g>
  <g id="#343c4bff" transform="matrix(1.006108, 0, 0, 1.006108, -156.58699, 7.429187)" style="">
    <path fill="#343c4b" opacity="1.00" d=" M 289.40 212.63 C 290.10 212.51 291.49 212.27 292.18 212.15 C 292.46 224.12 295.28 235.84 298.33 247.37 C 296.59 247.20 294.86 247.03 293.14 246.87 C 290.66 239.10 289.05 231.07 288.05 222.99 C 287.52 219.46 288.08 215.91 289.40 212.63 Z"></path>
  </g>
  <g id="#464c5cff" transform="matrix(1.006108, 0, 0, 1.006108, -156.58699, 7.429187)" style="">
    <path fill="#464c5c" opacity="1.00" d=" M 323.84 241.20 C 329.83 240.08 335.94 240.69 341.99 240.84 C 356.99 241.35 372.01 243.30 386.42 247.59 C 390.46 248.69 394.47 250.01 398.14 252.07 C 394.89 251.99 391.65 251.58 388.56 250.58 C 372.87 245.71 356.41 243.50 340.01 243.32 C 334.60 243.13 328.69 244.22 323.84 241.20 Z"></path>
    <path fill="#464c5c" opacity="1.00" d=" M 426.45 248.55 C 440.55 244.12 455.25 241.73 470.00 241.03 C 477.40 240.70 484.87 240.14 492.24 241.21 C 489.43 242.81 486.22 243.46 483.01 243.33 C 467.29 243.01 451.48 244.41 436.18 248.15 C 430.09 249.56 424.24 252.41 417.84 252.06 C 420.61 250.64 423.48 249.45 426.45 248.55 Z"></path>
  </g>
  <g id="#cb7c27ff" transform="matrix(1.006108, 0, 0, 1.006108, -156.58699, 7.429187)" style="">
    <path fill="#cb7c27" opacity="1.00" d=" M 303.50 245.07 C 303.60 245.40 303.80 246.07 303.90 246.40 C 306.39 256.85 311.91 266.11 315.96 275.95 C 314.09 275.60 312.17 275.41 310.41 274.66 C 308.76 273.55 308.03 271.55 307.12 269.86 C 303.80 262.53 300.81 255.03 298.33 247.37 C 300.06 246.62 301.78 245.85 303.50 245.07 Z"></path>
  </g>
  <g id="#ca7c26ff" transform="matrix(1.006108, 0, 0, 1.006108, -156.58699, 7.429187)" style="">
    <path fill="#ca7c26" opacity="1.00" d=" M 512.24 246.29 C 512.35 245.95 512.55 245.28 512.65 244.95 C 514.34 245.77 516.04 246.58 517.75 247.39 C 515.26 255.06 512.47 262.66 508.88 269.89 C 507.26 269.22 505.64 268.56 504.02 267.89 C 506.96 260.76 510.30 253.78 512.24 246.29 Z"></path>
  </g>
  <g id="#f9b592ff" transform="matrix(1.006108, 0, 0, 1.006108, -156.58699, 7.429187)" style="">
    <path fill="#f9b592" opacity="1.00" d=" M 331.55 248.26 C 336.03 247.39 340.60 247.66 345.12 247.96 C 345.87 254.79 346.17 262.04 349.96 268.01 C 353.51 274.20 359.84 278.35 366.65 280.10 C 369.15 280.66 371.69 281.05 374.25 281.31 C 368.08 282.14 361.95 280.79 355.84 280.10 C 356.46 283.37 357.16 286.62 357.97 289.85 C 353.21 289.65 348.54 288.61 344.09 286.97 C 340.67 273.83 335.42 261.26 331.55 248.26 Z"></path>
  </g>
  <g id="#424043ff" transform="matrix(1.006108, 0, 0, 1.006108, -156.58699, 7.429187)" style="">
    <path fill="#424043" opacity="1.00" d=" M 345.12 247.96 C 349.65 248.29 355.22 247.62 358.15 251.91 C 356.15 251.56 354.14 251.27 352.13 250.98 C 352.30 255.68 352.75 260.44 354.45 264.86 C 357.04 269.56 361.08 273.37 365.88 275.75 C 366.13 277.20 366.39 278.64 366.65 280.10 C 359.84 278.35 353.51 274.20 349.96 268.01 C 346.17 262.04 345.87 254.79 345.12 247.96 Z"></path>
    <path fill="#424043" opacity="1.00" d=" M 453.52 249.44 C 459.54 248.65 465.61 248.28 471.67 247.75 C 470.72 252.53 470.28 257.42 469.00 262.13 C 467.71 266.80 464.49 270.56 461.48 274.23 C 460.46 272.71 459.43 271.20 458.38 269.71 C 459.57 268.20 460.63 266.58 461.63 264.93 C 463.57 260.55 463.80 255.69 463.84 250.96 C 460.20 251.51 456.56 252.10 452.99 252.96 C 453.16 251.78 453.33 250.61 453.52 249.44 Z"></path>
    <path fill="#424043" opacity="1.00" d=" M 372.13 250.98 C 374.78 251.45 377.58 251.64 380.02 252.91 C 381.86 255.20 382.82 258.05 384.18 260.64 C 382.51 263.44 380.44 266.18 377.12 267.08 C 375.48 261.70 373.51 256.43 372.13 250.98 Z"></path>
    <path fill="#424043" opacity="1.00" d=" M 431.12 254.00 C 433.56 253.32 436.01 252.70 438.49 252.15 C 440.25 257.11 440.33 263.27 444.81 266.74 C 441.93 267.21 438.76 267.41 436.16 265.87 C 433.51 264.39 432.21 261.49 431.08 258.83 C 431.00 257.22 431.09 255.61 431.12 254.00 Z"></path>
  </g>
  <g id="#d4907bff" transform="matrix(1.006108, 0, 0, 1.006108, -156.58699, 7.429187)" style="">
    <path fill="#d4907b" opacity="1.00" d=" M 471.67 247.75 C 473.41 247.77 475.16 247.79 476.91 247.81 C 479.39 257.01 483.32 265.78 485.37 275.10 C 484.85 278.54 484.38 283.26 480.47 284.49 C 475.99 286.37 471.22 287.40 466.58 288.79 C 463.83 284.55 462.15 279.75 460.96 274.87 L 461.48 274.23 C 464.49 270.56 467.71 266.80 469.00 262.13 C 470.28 257.42 470.72 252.53 471.67 247.75 Z"></path>
  </g>
  <g id="#c2c0beff" transform="matrix(1.006108, 0, 0, 1.006108, -156.58699, 7.429187)" style="">
    <path fill="#c2c0be" opacity="1.00" d=" M 352.13 250.98 C 354.14 251.27 356.15 251.56 358.15 251.91 C 362.22 252.73 366.22 253.86 370.20 255.04 C 369.03 256.54 368.16 258.48 366.39 259.36 C 364.49 259.85 362.50 259.81 360.56 259.91 C 360.19 260.21 359.46 260.80 359.10 261.09 C 357.54 262.34 355.98 263.59 354.45 264.86 C 352.75 260.44 352.30 255.68 352.13 250.98 Z"></path>
  </g>
  <g id="#fefefcff" transform="matrix(1.006108, 0, 0, 1.006108, -156.58699, 7.429187)" style="">
    <path fill="#fefefc" opacity="1.00" d=" M 405.47 253.91 C 407.11 253.83 408.75 253.77 410.40 253.73 C 409.77 255.22 409.13 256.71 408.49 258.20 C 407.47 256.78 406.46 255.35 405.47 253.91 Z"></path>
  </g>
  <g id="#9dafb4ff" transform="matrix(1.006108, 0, 0, 1.006108, -156.58699, 7.429187)" style="">
    <path fill="#9dafb4" opacity="1.00" d=" M 408.92 263.72 C 409.56 260.33 411.21 257.26 413.72 254.90 C 413.65 257.96 413.40 261.02 413.07 264.07 C 411.68 263.95 410.30 263.83 408.92 263.72 Z"></path>
  </g>
  <g id="#e9e8ecff" transform="matrix(1.006108, 0, 0, 1.006108, -156.58699, 7.429187)" style="">
    <path fill="#e9e8ec" opacity="1.00" d=" M 403.06 256.83 C 404.30 256.12 405.71 258.02 405.05 259.13 C 404.57 259.24 403.61 259.45 403.14 259.56 C 402.24 258.70 402.22 257.79 403.06 256.83 Z"></path>
  </g>
  <g id="#f69e75ff" transform="matrix(1.006108, 0, 0, 1.006108, -156.58699, 7.429187)" style="">
    <path fill="#f69e75" opacity="1.00" d=" M 390.98 256.68 C 393.16 257.21 395.35 257.79 397.52 258.40 C 397.85 264.68 398.20 271.03 397.20 277.28 C 397.04 276.58 396.72 275.20 396.56 274.51 C 394.94 268.49 392.34 262.77 390.98 256.68 Z"></path>
  </g>
  <g id="#ca735fff" transform="matrix(1.006108, 0, 0, 1.006108, -156.58699, 7.429187)" style="">
    <path fill="#ca735f" opacity="1.00" d=" M 418.49 258.38 C 420.88 257.69 423.30 257.10 425.75 256.61 C 423.71 262.57 421.58 268.48 419.65 274.47 C 419.44 275.17 419.03 276.58 418.82 277.29 C 417.61 271.05 418.19 264.67 418.49 258.38 Z"></path>
  </g>
  <g id="#f5c156ff" transform="matrix(1.006108, 0, 0, 1.006108, -156.58699, 7.429187)" style="">
    <path fill="#f5c156" opacity="1.00" d=" M 384.18 260.64 C 384.68 259.57 386.03 259.77 386.98 259.50 C 386.30 261.34 385.74 263.25 384.68 264.92 C 382.88 266.76 380.86 268.36 378.88 269.99 C 373.20 270.41 365.51 268.42 364.86 261.68 C 368.83 263.74 372.06 268.44 377.12 267.08 C 380.44 266.18 382.51 263.44 384.18 260.64 Z"></path>
  </g>
  <g id="#9dadb3ff" transform="matrix(1.006108, 0, 0, 1.006108, -156.58699, 7.429187)" style="">
    <path fill="#9dadb3" opacity="1.00" d=" M 405.05 259.13 L 405.83 258.92 C 406.25 260.51 406.64 262.11 407.04 263.71 C 405.63 263.87 404.23 264.04 402.83 264.20 C 402.92 262.65 403.03 261.10 403.14 259.56 C 403.61 259.45 404.57 259.24 405.05 259.13 Z"></path>
  </g>
  <g id="#f8cf80ff" transform="matrix(1.006108, 0, 0, 1.006108, -156.58699, 7.429187)" style="">
    <path fill="#f8cf80" opacity="1.00" d=" M 434.89 268.10 C 432.16 265.93 429.06 262.47 431.08 258.83 C 432.21 261.49 433.51 264.39 436.16 265.87 C 438.76 267.41 441.93 267.21 444.81 266.74 C 446.86 264.99 448.80 263.09 451.13 261.71 C 450.40 268.81 440.30 272.69 434.89 268.10 Z"></path>
  </g>
  <g id="#fefefeff" transform="matrix(1.006108, 0, 0, 1.006108, -156.58699, 7.429187)" style="">
    <path fill="#fefefe" opacity="1.00" d=" M 354.45 264.86 C 355.98 263.59 357.54 262.34 359.10 261.09 C 361.08 264.56 362.61 268.58 366.01 270.97 C 369.78 273.80 374.91 274.64 379.41 273.25 C 381.25 272.59 383.04 271.81 384.83 271.01 C 385.29 272.13 385.75 273.25 386.22 274.37 C 384.12 275.29 381.96 276.10 379.77 276.79 C 375.14 277.85 370.34 277.23 365.88 275.75 C 361.08 273.37 357.04 269.56 354.45 264.86 Z"></path>
    <path fill="#fefefe" opacity="1.00" d=" M 457.03 261.18 C 458.56 262.43 460.10 263.67 461.63 264.93 C 460.63 266.58 459.57 268.20 458.38 269.71 C 455.07 273.60 450.29 275.91 445.44 277.23 C 439.90 278.49 434.28 276.46 429.50 273.75 C 430.65 273.20 431.77 272.62 432.90 272.05 C 438.20 273.92 444.54 274.69 449.48 271.45 C 453.25 269.14 455.10 264.96 457.03 261.18 Z"></path>
  </g>
  <g id="#414044ff" transform="matrix(1.006108, 0, 0, 1.006108, -156.58699, 7.429187)" style="">
    <path fill="#414044" opacity="1.00" d=" M 378.88 269.99 C 380.86 268.36 382.88 266.76 384.68 264.92 C 385.22 266.40 385.75 267.89 386.30 269.38 C 385.93 269.79 385.19 270.61 384.83 271.01 C 383.04 271.81 381.25 272.59 379.41 273.25 C 379.27 272.44 379.01 270.81 378.88 269.99 Z"></path>
  </g>
  <g id="#b6b2afff" transform="matrix(1.006108, 0, 0, 1.006108, -156.58699, 7.429187)" style="">
    <path fill="#b6b2af" opacity="1.00" d=" M 386.30 269.38 C 387.10 268.50 387.93 267.64 388.76 266.79 C 389.35 268.25 389.94 269.71 390.54 271.17 C 389.54 272.05 388.58 272.99 387.48 273.74 C 387.17 273.89 386.54 274.21 386.22 274.37 C 385.75 273.25 385.29 272.13 384.83 271.01 C 385.19 270.61 385.93 269.79 386.30 269.38 Z"></path>
  </g>
  <g id="#b3b2b1ff" transform="matrix(1.006108, 0, 0, 1.006108, -156.58699, 7.429187)" style="">
    <path fill="#b3b2b1" opacity="1.00" d=" M 427.10 266.93 C 429.09 268.56 431.04 270.25 432.90 272.05 C 431.77 272.62 430.65 273.20 429.50 273.75 C 428.22 273.28 427.02 272.62 425.81 272.03 C 426.23 270.32 426.66 268.62 427.10 266.93 Z"></path>
  </g>
  <g id="#424145ff" transform="matrix(1.006108, 0, 0, 1.006108, -156.58699, 7.429187)" style="">
    <path fill="#424145" opacity="1.00" d=" M 386.22 274.37 C 386.54 274.21 387.17 273.89 387.48 273.74 C 388.31 274.65 389.14 275.56 389.97 276.48 C 387.18 277.86 384.35 279.19 381.36 280.06 C 380.83 278.96 380.30 277.88 379.77 276.79 C 381.96 276.10 384.12 275.29 386.22 274.37 Z"></path>
  </g>
  <g id="#fdd5a0ff" transform="matrix(1.006108, 0, 0, 1.006108, -156.58699, 7.429187)" style="">
    <path fill="#fdd5a0" opacity="1.00" d=" M 389.97 276.48 C 392.01 275.38 394.29 274.92 396.56 274.51 C 396.72 275.20 397.04 276.58 397.20 277.28 C 396.93 281.17 396.21 285.11 394.74 288.73 C 393.66 291.11 390.60 290.98 388.42 291.41 C 378.33 292.20 368.17 291.82 358.14 290.53 L 357.97 289.85 C 357.16 286.62 356.46 283.37 355.84 280.10 C 361.95 280.79 368.08 282.14 374.25 281.31 C 376.64 281.07 379.01 280.62 381.36 280.06 C 384.35 279.19 387.18 277.86 389.97 276.48 Z"></path>
  </g>
  <g id="#f79f76ff" transform="matrix(1.006108, 0, 0, 1.006108, -156.58699, 7.429187)" style="">
    <path fill="#f79f76" opacity="1.00" d=" M 418.82 277.29 C 419.03 276.58 419.44 275.17 419.65 274.47 C 423.57 274.85 427.00 276.76 430.42 278.53 C 436.04 281.38 442.50 279.97 448.51 280.92 C 452.59 281.45 456.69 280.87 460.72 280.18 C 459.81 283.48 458.94 286.79 458.08 290.11 C 448.35 292.29 438.29 292.03 428.40 291.50 C 425.75 291.07 421.94 291.17 420.98 288.05 C 419.65 284.63 418.92 280.95 418.82 277.29 Z"></path>
  </g>
  <g id="#1f1c22ff" transform="matrix(1.006108, 0, 0, 1.006108, -156.58699, 7.429187)" style="">
    <path fill="#1f1c22" opacity="1.00" d=" M 366.65 280.10 C 366.39 278.64 366.13 277.20 365.88 275.75 C 370.34 277.23 375.14 277.85 379.77 276.79 C 380.30 277.88 380.83 278.96 381.36 280.06 C 379.01 280.62 376.64 281.07 374.25 281.31 C 371.69 281.05 369.15 280.66 366.65 280.10 Z"></path>
  </g>
  <g id="#fcc141ff" transform="matrix(1.006108, 0, 0, 1.006108, -156.58699, 7.429187)" style="">
    <path fill="#fcc141" opacity="1.00" d=" M 491.00 289.28 C 491.67 288.29 492.30 287.26 492.88 286.21 C 495.44 289.25 498.01 292.29 500.61 295.30 C 499.91 296.16 499.19 297.00 498.44 297.82 C 496.85 294.29 494.26 291.36 491.00 289.28 Z"></path>
    <path fill="#fcc141" opacity="1.00" d=" M 486.57 294.62 C 487.42 293.72 488.23 292.78 489.04 291.83 C 491.75 294.43 493.87 297.55 495.39 300.98 C 494.71 301.63 494.02 302.28 493.34 302.92 C 492.16 299.40 490.16 296.07 486.57 294.62 Z"></path>
    <path fill="#fcc141" opacity="1.00" d=" M 482.22 298.63 C 483.08 297.92 483.93 297.18 484.77 296.43 C 486.93 299.23 488.92 302.16 490.80 305.15 C 490.06 305.76 489.32 306.36 488.57 306.94 C 487.00 303.79 484.89 300.94 482.22 298.63 Z"></path>
    <path fill="#fcc141" opacity="1.00" d=" M 402.41 339.05 C 403.82 339.33 405.22 339.61 406.64 339.90 C 407.80 343.48 408.27 347.25 408.10 351.01 C 407.74 364.06 408.21 377.13 407.89 390.18 C 403.25 390.41 398.60 390.38 393.96 390.24 C 393.17 387.99 392.38 385.61 393.17 383.24 C 396.69 368.61 400.28 353.96 402.41 339.05 Z"></path>
    <path fill="#fcc141" opacity="1.00" d=" M 305.86 397.05 C 306.84 396.56 307.82 396.09 308.81 395.61 C 309.57 397.65 310.34 399.69 311.09 401.73 C 310.39 401.81 308.99 401.95 308.29 402.03 C 307.51 400.35 306.74 398.67 305.86 397.05 Z"></path>
  </g>
  <g id="#cb725fff" transform="matrix(1.006108, 0, 0, 1.006108, -156.58699, 7.429187)" style="">
    <path fill="#cb725f" opacity="1.00" d=" M 401.56 289.69 C 403.00 289.57 404.43 289.44 405.87 289.32 C 408.80 289.20 411.73 289.34 414.66 289.51 C 412.82 291.82 410.16 293.06 407.35 293.77 C 405.41 292.42 403.48 291.07 401.56 289.69 Z"></path>
    <path fill="#cb725f" opacity="1.00" d=" M 451.84 296.61 C 458.62 295.37 465.39 293.98 472.22 293.04 C 467.14 297.02 461.20 299.65 455.44 302.48 C 443.09 308.31 430.44 313.67 417.22 317.22 C 414.18 318.05 411.03 318.30 407.90 318.49 C 408.07 316.80 408.26 315.12 408.45 313.45 C 420.94 311.85 432.62 306.92 444.18 302.19 C 447.17 301.03 450.06 299.37 451.84 296.61 Z"></path>
  </g>
  <g id="#232431ff" transform="matrix(1.006108, 0, 0, 1.006108, -156.58699, 7.429187)" style="">
    <path fill="#232431" opacity="1.00" d=" M 489.04 291.83 C 489.71 291.00 490.36 290.15 491.00 289.28 C 494.26 291.36 496.85 294.29 498.44 297.82 C 497.44 298.89 496.42 299.95 495.39 300.98 C 493.87 297.55 491.75 294.43 489.04 291.83 Z"></path>
  </g>
  <g id="#222532ff" transform="matrix(1.006108, 0, 0, 1.006108, -156.58699, 7.429187)" style="">
    <path fill="#222532" opacity="1.00" d=" M 486.57 294.62 C 490.16 296.07 492.16 299.40 493.34 302.92 C 492.50 303.67 491.65 304.42 490.80 305.15 C 488.92 302.16 486.93 299.23 484.77 296.43 C 485.22 295.98 486.12 295.07 486.57 294.62 Z"></path>
  </g>
  <g id="#44495cff" transform="matrix(1.006108, 0, 0, 1.006108, -156.58699, 7.429187)" style="">
    <path fill="#44495c" opacity="1.00" d=" M 370.46 315.73 C 372.50 314.70 374.78 313.88 376.97 315.03 C 384.06 317.88 391.27 320.41 398.70 322.26 C 395.58 327.44 392.63 332.71 389.73 338.01 C 381.39 332.56 375.21 324.37 370.46 315.73 Z"></path>
    <path fill="#44495c" opacity="1.00" d=" M 408.10 395.09 C 422.07 394.88 436.03 395.14 450.00 395.11 C 456.88 395.17 463.78 394.65 470.65 395.43 C 466.35 398.43 460.89 397.17 456.01 397.34 C 442.08 397.40 428.16 397.07 414.24 397.45 C 414.08 399.25 413.92 401.05 413.77 402.86 C 426.51 403.30 439.26 402.90 452.00 403.04 C 460.09 403.22 468.43 402.04 476.25 404.67 C 468.21 405.84 460.08 405.23 452.00 405.33 C 439.36 405.39 426.71 405.26 414.07 405.33 C 414.06 406.47 414.05 407.63 414.04 408.79 C 432.02 409.23 450.01 408.83 467.99 408.96 C 496.63 408.87 525.27 409.13 553.91 408.83 C 553.96 408.09 554.08 406.60 554.14 405.85 C 549.31 405.45 544.46 405.16 539.64 404.63 C 542.17 403.91 544.73 403.29 547.32 402.78 C 544.85 400.65 544.07 397.56 544.22 394.40 C 551.04 397.45 557.28 401.57 563.83 405.14 C 567.69 407.25 571.54 409.41 575.04 412.10 C 536.70 412.64 498.34 412.19 460.00 412.33 C 442.72 412.14 425.44 412.72 408.17 412.06 C 408.11 406.40 408.10 400.74 408.10 395.09 Z"></path>
    <path fill="#44495c" opacity="1.00" d=" M 283.24 407.16 C 291.77 407.32 300.25 406.39 308.77 406.09 C 308.76 406.77 308.76 408.13 308.76 408.81 C 308.72 413.56 308.17 418.28 307.68 423.00 C 303.18 423.58 298.66 423.97 294.13 424.05 C 290.49 424.12 286.85 424.15 283.21 424.15 C 283.30 423.11 283.40 422.07 283.50 421.04 C 281.58 420.73 279.67 420.40 277.75 420.18 C 284.13 420.37 290.53 420.40 296.91 419.98 C 296.93 417.07 296.93 414.16 296.92 411.25 C 292.35 411.44 287.79 411.72 283.22 411.77 C 283.23 410.23 283.24 408.69 283.24 407.16 Z"></path>
  </g>
  <g id="#fcc241ff" transform="matrix(1.006108, 0, 0, 1.006108, -156.58699, 7.429187)" style="">
    <path fill="#fcc241" opacity="1.00" d=" M 402.33 324.17 C 404.12 323.35 406.18 323.76 408.10 323.57 C 408.03 327.88 407.86 332.18 407.48 336.48 C 404.16 335.33 400.67 334.21 398.02 331.80 C 398.40 328.84 400.23 326.20 402.33 324.17 Z"></path>
  </g>
  <g id="#c87b29ff" transform="matrix(1.006108, 0, 0, 1.006108, -156.58699, 7.429187)" style="">
    <path fill="#c87b29" opacity="1.00" d=" M 408.10 323.57 C 410.60 323.72 413.79 323.17 415.25 325.78 C 416.43 327.73 419.72 330.93 416.82 332.77 C 414.01 334.86 410.62 335.89 407.42 337.21 L 407.48 336.48 C 407.86 332.18 408.03 327.88 408.10 323.57 Z"></path>
  </g>
  <g id="#c87b2bff" transform="matrix(1.006108, 0, 0, 1.006108, -156.58699, 7.429187)" style="">
    <path fill="#c87b2b" opacity="1.00" d=" M 406.64 339.90 C 408.99 339.71 411.34 339.49 413.69 339.25 C 415.96 354.06 419.41 368.63 423.02 383.16 C 423.89 385.75 422.87 388.34 421.91 390.73 C 412.69 390.78 403.47 390.72 394.25 390.87 L 393.96 390.24 C 398.60 390.38 403.25 390.41 407.89 390.18 C 408.21 377.13 407.74 364.06 408.10 351.01 C 408.27 347.25 407.80 343.48 406.64 339.90 Z"></path>
  </g>
  <g id="#26262fff" transform="matrix(1.006108, 0, 0, 1.006108, -156.58699, 7.429187)" style="">
    <path fill="#26262f" opacity="1.00" d=" M 285.88 354.78 C 289.40 351.19 293.21 347.82 297.73 345.56 C 296.11 347.65 294.67 349.88 293.31 352.16 C 293.70 352.07 294.47 351.90 294.86 351.81 C 291.70 355.09 287.30 358.28 287.50 363.36 C 290.70 360.92 293.37 356.62 297.95 357.21 C 305.19 357.33 313.71 358.49 318.09 365.01 C 319.63 371.41 320.41 377.96 321.22 384.49 C 327.76 386.73 332.04 392.39 337.80 395.89 C 337.32 396.27 336.37 397.02 335.89 397.40 C 331.57 394.97 327.13 389.93 321.73 392.11 C 321.02 392.70 320.32 393.31 319.63 393.93 C 320.72 394.85 321.81 395.76 322.89 396.70 C 322.17 397.36 321.47 398.05 320.75 398.71 C 317.02 396.86 312.92 396.04 308.81 395.61 C 308.67 394.98 308.54 394.35 308.41 393.72 C 311.37 392.97 315.85 393.56 316.92 389.89 C 318.58 385.03 317.95 379.76 317.36 374.77 C 316.99 372.39 316.51 369.90 315.08 367.91 C 313.61 366.29 311.29 365.88 309.23 365.59 C 305.61 365.26 301.74 364.78 298.31 366.26 C 295.77 367.53 296.73 370.57 297.03 372.77 C 298.06 378.29 296.01 384.01 297.61 389.46 C 299.70 392.03 302.72 393.64 305.05 395.99 C 302.24 395.62 299.24 395.69 296.68 394.34 C 294.63 392.77 293.59 390.30 292.28 388.15 C 292.12 390.33 291.94 392.51 291.75 394.69 C 289.67 395.43 287.60 396.18 285.53 396.92 C 285.45 399.11 285.39 401.30 285.33 403.49 C 293.01 403.66 300.68 403.05 308.29 402.03 C 308.99 401.95 310.39 401.81 311.09 401.73 C 313.05 401.53 315.01 401.34 316.97 401.04 C 316.40 402.05 315.83 403.05 315.28 404.06 C 316.00 404.03 317.46 403.95 318.19 403.91 C 316.53 404.34 314.90 404.86 313.26 405.36 C 312.91 406.55 312.56 407.75 312.27 408.96 C 311.09 408.91 309.92 408.86 308.76 408.81 C 308.76 408.13 308.76 406.77 308.77 406.09 C 300.25 406.39 291.77 407.32 283.24 407.16 C 274.81 407.06 266.41 406.16 257.99 405.76 C 258.05 411.53 258.40 417.30 259.15 423.02 C 267.12 424.06 275.18 424.07 283.21 424.15 C 286.85 424.15 290.49 424.12 294.13 424.05 C 293.37 424.99 292.61 425.94 291.85 426.89 C 277.96 426.93 264.05 427.13 250.17 426.49 C 247.23 426.07 243.20 426.53 241.63 423.39 C 237.54 416.63 238.36 408.50 238.19 400.96 C 237.12 393.61 233.77 386.18 235.84 378.68 C 238.52 373.26 245.13 372.06 250.35 370.33 C 251.18 364.62 252.70 359.04 255.00 353.74 C 262.21 349.88 270.49 349.70 278.47 349.63 C 280.85 351.46 283.40 353.06 285.88 354.78 M 258.88 358.87 C 257.35 359.38 256.78 361.00 256.31 362.38 C 255.21 365.82 254.78 369.45 254.73 373.05 C 253.82 373.63 252.91 374.20 252.01 374.78 C 247.88 375.44 243.40 376.32 240.36 379.42 C 239.17 382.20 239.88 385.33 239.91 388.26 C 240.56 391.44 241.30 394.60 242.13 397.75 C 246.38 395.43 250.63 393.12 254.91 390.86 C 258.82 389.33 262.74 387.66 266.96 387.19 C 269.77 386.58 273.27 386.72 275.27 384.31 C 277.29 377.98 276.13 371.18 276.06 364.66 C 276.67 364.58 277.88 364.43 278.48 364.35 C 277.68 361.05 276.09 357.69 272.20 357.57 C 267.76 357.68 263.08 357.10 258.88 358.87 M 294.99 360.02 C 295.65 361.30 296.32 362.59 296.99 363.88 C 302.43 363.69 307.87 363.77 313.32 363.70 C 307.79 360.43 301.29 359.77 294.99 360.02 M 279.84 378.86 C 279.74 381.24 279.69 383.62 279.68 386.01 C 279.67 388.10 279.66 390.19 279.64 392.28 C 282.24 392.69 284.88 392.82 287.51 392.73 C 287.75 388.20 287.91 383.68 287.89 379.15 L 287.24 378.97 C 284.77 378.84 282.30 378.81 279.84 378.86 M 259.39 393.83 C 254.25 393.40 250.10 397.20 246.01 399.76 C 249.08 400.18 252.46 401.85 255.45 400.80 C 256.55 401.18 257.65 401.56 258.75 401.93 C 266.44 402.60 274.14 403.87 281.87 403.14 C 281.79 401.22 281.72 399.32 281.64 397.41 C 279.89 396.84 278.14 396.27 276.39 395.70 C 275.76 394.69 275.13 393.68 274.51 392.68 C 270.85 393.38 267.13 393.72 263.41 393.75 C 263.94 392.78 264.46 391.80 264.98 390.83 C 263.06 391.70 261.00 392.41 259.39 393.83 M 242.89 403.18 C 242.51 408.59 242.07 414.38 244.48 419.41 C 246.38 423.27 251.46 422.32 255.00 422.90 C 255.22 416.92 254.67 410.96 253.92 405.04 C 250.28 404.22 246.60 403.61 242.89 403.18 Z"></path>
  </g>
  <g id="#cd725eff" transform="matrix(1.006108, 0, 0, 1.006108, -156.58699, 7.429187)" style="">
    <path fill="#cd725e" opacity="1.00" d=" M 515.73 348.91 C 524.69 352.79 531.18 361.33 532.99 370.87 C 530.05 371.18 527.12 371.43 524.18 371.65 C 522.77 367.06 522.04 362.31 520.97 357.64 C 519.63 356.18 518.09 354.92 516.42 353.88 C 515.37 353.30 514.28 352.81 513.21 352.31 C 514.05 351.18 514.89 350.04 515.73 348.91 Z"></path>
  </g>
  <g id="#454a5bff" transform="matrix(1.006108, 0, 0, 1.006108, -156.58699, 7.429187)" style="">
    <path fill="#454a5b" opacity="1.00" d=" M 496.26 354.71 C 502.07 354.57 508.20 353.14 513.79 355.27 C 515.25 355.96 516.67 356.71 518.10 357.46 C 511.00 356.83 503.88 357.41 496.91 358.87 C 496.69 357.48 496.47 356.09 496.26 354.71 Z"></path>
  </g>
  <g id="#2b323dff" transform="matrix(1.006108, 0, 0, 1.006108, -156.58699, 7.429187)" style="">
    <path fill="#2b323d" opacity="1.00" d=" M 516.42 353.88 C 518.09 354.92 519.63 356.18 520.97 357.64 C 519.86 358.34 518.77 359.04 517.67 359.73 C 512.74 359.13 507.74 358.91 502.81 359.64 C 498.95 360.30 497.77 364.06 496.72 367.29 C 497.75 367.07 498.79 366.86 499.83 366.65 C 500.18 372.86 499.74 379.29 501.74 385.28 C 502.58 387.98 505.87 388.09 508.18 388.70 C 506.69 388.92 505.21 389.16 503.74 389.41 C 508.64 390.89 513.78 390.45 518.81 390.14 C 519.15 391.09 519.51 392.05 519.86 393.02 C 511.27 393.23 502.67 393.42 494.09 392.90 C 493.44 388.29 493.13 383.60 491.76 379.13 C 490.85 375.98 489.49 372.71 490.31 369.38 C 491.46 364.22 493.07 359.01 496.26 354.71 C 496.47 356.09 496.69 357.48 496.91 358.87 C 503.88 357.41 511.00 356.83 518.10 357.46 C 516.67 356.71 515.25 355.96 513.79 355.27 C 514.45 354.93 515.76 354.23 516.42 353.88 Z"></path>
  </g>
  <g id="#cc725eff" transform="matrix(1.006108, 0, 0, 1.006108, -156.58699, 7.429187)" style="">
    <path fill="#cc725e" opacity="1.00" d=" M 272.20 357.57 C 276.09 357.69 277.68 361.05 278.48 364.35 C 277.88 364.43 276.67 364.58 276.06 364.66 C 276.13 371.18 277.29 377.98 275.27 384.31 C 273.27 386.72 269.77 386.58 266.96 387.19 C 262.74 387.66 258.82 389.33 254.91 390.86 C 254.25 388.21 253.59 385.55 253.09 382.86 C 252.64 380.18 252.33 377.48 252.01 374.78 C 252.91 374.20 253.82 373.63 254.73 373.05 C 254.70 375.11 254.73 377.18 254.76 379.25 C 258.42 380.42 262.33 381.27 266.15 380.27 C 268.25 379.73 271.12 379.14 271.66 376.64 C 273.10 370.39 272.15 363.91 272.20 357.57 Z"></path>
  </g>
  <g id="#464c5aff" transform="matrix(1.006108, 0, 0, 1.006108, -156.58699, 7.429187)" style="">
    <path fill="#464c5a" opacity="1.00" d=" M 294.99 360.02 C 301.29 359.77 307.79 360.43 313.32 363.70 C 307.87 363.77 302.43 363.69 296.99 363.88 C 296.32 362.59 295.65 361.30 294.99 360.02 Z"></path>
  </g>
  <g id="#444a5dff" transform="matrix(1.006108, 0, 0, 1.006108, -156.58699, 7.429187)" style="">
    <path fill="#444a5d" opacity="1.00" d=" M 466.38 368.52 C 471.25 365.47 477.30 364.41 482.97 365.10 C 486.63 365.18 487.53 369.27 488.95 371.89 C 481.98 370.35 474.79 370.72 467.97 372.82 C 467.25 371.47 465.34 370.19 466.38 368.52 Z"></path>
  </g>
  <g id="#fecf95ff" transform="matrix(1.006108, 0, 0, 1.006108, -156.58699, 7.429187)" style="">
    <path fill="#fecf95" opacity="1.00" d=" M 240.36 379.42 C 243.40 376.32 247.88 375.44 252.01 374.78 C 252.33 377.48 252.64 380.18 253.09 382.86 C 248.66 384.56 244.27 386.38 239.91 388.26 C 239.88 385.33 239.17 382.20 240.36 379.42 Z"></path>
  </g>
  <g id="#fcc343ff" transform="matrix(1.006108, 0, 0, 1.006108, -156.58699, 7.429187)" style="">
    <path fill="#fcc343" opacity="1.00" d=" M 279.84 378.86 C 282.30 378.81 284.77 378.84 287.24 378.97 C 287.16 381.16 287.09 383.36 287.01 385.56 C 284.56 385.71 282.12 385.86 279.68 386.01 C 279.69 383.62 279.74 381.24 279.84 378.86 Z"></path>
  </g>
  <g id="#c0702aff" transform="matrix(1.006108, 0, 0, 1.006108, -156.58699, 7.429187)" style="">
    <path fill="#c0702a" opacity="1.00" d=" M 287.24 378.97 L 287.89 379.15 C 287.91 383.68 287.75 388.20 287.51 392.73 C 284.88 392.82 282.24 392.69 279.64 392.28 C 279.66 390.19 279.67 388.10 279.68 386.01 C 282.12 385.86 284.56 385.71 287.01 385.56 C 287.09 383.36 287.16 381.16 287.24 378.97 Z"></path>
  </g>
  <g id="#fc9e6fff" transform="matrix(1.006108, 0, 0, 1.006108, -156.58699, 7.429187)" style="">
    <path fill="#fc9e6f" opacity="1.00" d=" M 440.40 380.13 C 445.26 379.76 450.14 379.64 455.02 379.80 C 456.02 380.60 456.94 381.51 457.78 382.52 C 452.15 384.18 443.99 386.39 440.40 380.13 Z"></path>
  </g>
  <g id="#656b81ff" transform="matrix(1.006108, 0, 0, 1.006108, -156.58699, 7.429187)" style="">
    <path fill="#656b81" opacity="1.00" d=" M 292.28 388.15 C 293.59 390.30 294.63 392.77 296.68 394.34 C 299.24 395.69 302.24 395.62 305.05 395.99 C 305.25 396.26 305.65 396.78 305.86 397.05 C 306.74 398.67 307.51 400.35 308.29 402.03 C 300.68 403.05 293.01 403.66 285.33 403.49 C 285.39 401.30 285.45 399.11 285.53 396.92 C 287.60 396.18 289.67 395.43 291.75 394.69 C 291.94 392.51 292.12 390.33 292.28 388.15 Z"></path>
    <path fill="#656b81" opacity="1.00" d=" M 257.99 405.76 C 266.41 406.16 274.81 407.06 283.24 407.16 C 283.24 408.69 283.23 410.23 283.22 411.77 C 278.85 411.77 274.48 411.55 270.12 411.35 C 270.15 414.16 270.19 416.98 270.24 419.80 C 272.74 419.91 275.25 420.02 277.75 420.18 C 279.67 420.40 281.58 420.73 283.50 421.04 C 283.40 422.07 283.30 423.11 283.21 424.15 C 275.18 424.07 267.12 424.06 259.15 423.02 C 258.40 417.30 258.05 411.53 257.99 405.76 Z"></path>
  </g>
  <g id="#f6c041ff" transform="matrix(1.006108, 0, 0, 1.006108, -156.58699, 7.429187)" style="">
    <path fill="#f6c041" opacity="1.00" d=" M 259.39 393.83 C 261.00 392.41 263.06 391.70 264.98 390.83 C 264.46 391.80 263.94 392.78 263.41 393.75 C 261.86 396.48 260.28 399.19 258.75 401.93 C 257.65 401.56 256.55 401.18 255.45 400.80 C 256.85 398.52 258.04 396.13 259.39 393.83 Z"></path>
  </g>
  <g id="#f7a074ff" transform="matrix(1.006108, 0, 0, 1.006108, -156.58699, 7.429187)" style="">
    <path fill="#f7a074" opacity="1.00" d=" M 321.73 392.11 C 327.13 389.93 331.57 394.97 335.89 397.40 C 336.80 398.03 337.71 398.69 338.60 399.38 C 331.83 403.08 325.80 396.87 321.73 392.11 Z"></path>
  </g>
  <g id="#898fa3ff" transform="matrix(1.006108, 0, 0, 1.006108, -156.58699, 7.429187)" style="">
    <path fill="#898fa3" opacity="1.00" d=" M 263.41 393.75 C 267.13 393.72 270.85 393.38 274.51 392.68 C 275.13 393.68 275.76 394.69 276.39 395.70 C 278.14 396.27 279.89 396.84 281.64 397.41 C 281.72 399.32 281.79 401.22 281.87 403.14 C 274.14 403.87 266.44 402.60 258.75 401.93 C 260.28 399.19 261.86 396.48 263.41 393.75 Z"></path>
  </g>
  <g id="#2c323eff" transform="matrix(1.006108, 0, 0, 1.006108, -156.58699, 7.429187)" style="">
    <path fill="#2c323e" opacity="1.00" d=" M 521.46 391.82 C 522.15 395.09 522.98 399.23 526.59 400.46 C 530.73 401.80 535.41 402.06 539.60 400.78 C 541.30 399.32 541.97 397.05 543.07 395.15 C 543.35 394.96 543.93 394.59 544.22 394.40 C 544.07 397.56 544.85 400.65 547.32 402.78 C 544.73 403.29 542.17 403.91 539.64 404.63 C 544.46 405.16 549.31 405.45 554.14 405.85 C 554.08 406.60 553.96 408.09 553.91 408.83 C 525.27 409.13 496.63 408.87 467.99 408.96 C 450.01 408.83 432.02 409.23 414.04 408.79 C 414.05 407.63 414.06 406.47 414.07 405.33 C 426.71 405.26 439.36 405.39 452.00 405.33 C 460.08 405.23 468.21 405.84 476.25 404.67 C 468.43 402.04 460.09 403.22 452.00 403.04 C 439.26 402.90 426.51 403.30 413.77 402.86 C 413.92 401.05 414.08 399.25 414.24 397.45 C 428.16 397.07 442.08 397.40 456.01 397.34 C 460.89 397.17 466.35 398.43 470.65 395.43 L 471.34 395.03 C 472.07 396.66 472.49 398.92 474.45 399.51 C 478.47 400.77 482.83 400.74 486.96 400.05 C 489.70 399.81 490.97 397.12 492.12 394.99 C 501.61 394.19 511.14 394.98 520.65 394.64 C 520.85 393.94 521.26 392.53 521.46 391.82 M 488.71 404.76 C 495.42 405.83 502.23 405.21 509.00 405.32 C 515.42 405.24 521.89 405.79 528.26 404.76 C 525.70 403.49 522.89 402.87 520.04 402.94 C 512.35 402.90 504.66 402.99 496.97 402.89 C 494.09 402.77 491.20 403.25 488.71 404.76 Z"></path>
  </g>
  <g id="#8990a6ff" transform="matrix(1.006108, 0, 0, 1.006108, -156.58699, 7.429187)" style="">
    <path fill="#8990a6" opacity="1.00" d=" M 246.01 399.76 C 250.10 397.20 254.25 393.40 259.39 393.83 C 258.04 396.13 256.85 398.52 255.45 400.80 C 252.46 401.85 249.08 400.18 246.01 399.76 Z"></path>
  </g>
  <g id="#646b80ff" transform="matrix(1.006108, 0, 0, 1.006108, -156.58699, 7.429187)" style="">
    <path fill="#646b80" opacity="1.00" d=" M 344.66 398.60 C 345.06 395.01 349.20 394.98 351.96 394.96 C 370.67 395.16 389.39 394.89 408.10 395.09 C 408.10 400.74 408.11 406.40 408.17 412.06 C 425.44 412.72 442.72 412.14 460.00 412.33 C 498.34 412.19 536.70 412.64 575.04 412.10 C 575.50 412.09 576.41 412.06 576.86 412.05 C 576.42 415.39 577.67 420.11 574.33 422.24 C 570.64 423.20 566.76 422.70 563.00 422.76 C 494.00 422.71 425.00 422.70 356.00 422.97 C 352.98 423.02 349.95 422.85 346.96 422.35 C 367.26 422.19 387.57 422.64 407.86 422.11 C 408.05 419.51 408.25 416.92 408.45 414.33 C 457.96 414.33 507.48 414.35 557.00 414.33 C 563.52 414.31 570.10 414.77 576.57 413.68 C 570.84 412.04 564.86 412.78 559.00 412.73 C 527.67 412.74 496.33 412.71 465.00 412.72 C 443.34 412.60 421.68 413.05 400.03 412.35 C 381.72 412.32 363.40 412.35 345.09 412.31 C 344.87 414.99 344.64 417.67 344.39 420.36 C 344.51 413.11 343.84 405.81 344.66 398.60 M 353.64 397.71 C 352.60 399.79 353.45 402.10 353.79 404.24 C 365.23 404.32 376.69 404.63 388.13 404.06 C 388.20 401.98 388.28 399.90 388.35 397.82 C 381.27 396.79 374.11 397.53 367.00 397.34 C 362.55 397.40 358.04 396.86 353.64 397.71 M 353.48 409.17 C 356.35 408.98 361.18 410.87 362.32 407.07 C 359.43 407.10 354.30 405.09 353.48 409.17 M 366.45 409.24 C 369.14 409.33 371.84 409.32 374.54 409.22 C 374.48 406.20 371.18 406.52 369.03 406.69 C 367.44 406.70 366.58 407.55 366.45 409.24 M 379.45 409.26 C 382.02 409.36 384.60 409.44 387.17 409.15 C 387.47 407.38 386.75 406.57 385.00 406.72 C 382.81 406.54 379.39 406.12 379.45 409.26 Z"></path>
  </g>
  <g id="#656c83ff" transform="matrix(1.006108, 0, 0, 1.006108, -156.58699, 7.429187)" style="">
    <path fill="#656c83" opacity="1.00" d=" M 308.81 395.61 C 312.92 396.04 317.02 396.86 320.75 398.71 C 320.53 398.91 320.09 399.30 319.86 399.49 C 318.93 400.07 317.95 400.57 316.97 401.04 C 315.01 401.34 313.05 401.53 311.09 401.73 C 310.34 399.69 309.57 397.65 308.81 395.61 Z"></path>
  </g>
  <g id="#646a80ff" transform="matrix(1.006108, 0, 0, 1.006108, -156.58699, 7.429187)" style="">
    <path fill="#646a80" opacity="1.00" d=" M 242.89 403.18 C 246.60 403.61 250.28 404.22 253.92 405.04 C 254.67 410.96 255.22 416.92 255.00 422.90 C 251.46 422.32 246.38 423.27 244.48 419.41 C 242.07 414.38 242.51 408.59 242.89 403.18 Z"></path>
  </g>
  <g id="#444a5cff" transform="matrix(1.006108, 0, 0, 1.006108, -156.58699, 7.429187)" style="">
    <path fill="#444a5c" opacity="1.00" d=" M 318.19 403.91 C 320.21 403.72 322.23 403.57 324.25 403.42 C 324.30 409.16 324.95 415.55 321.61 420.57 C 319.07 422.92 315.18 422.44 311.99 422.99 C 311.84 418.31 311.63 413.61 312.27 408.96 C 312.56 407.75 312.91 406.55 313.26 405.36 C 314.90 404.86 316.53 404.34 318.19 403.91 Z"></path>
  </g>
  <g id="#424858ff" transform="matrix(1.006108, 0, 0, 1.006108, -156.58699, 7.429187)" style="">
    <path fill="#424858" opacity="1.00" d=" M 488.71 404.76 C 491.20 403.25 494.09 402.77 496.97 402.89 C 504.66 402.99 512.35 402.90 520.04 402.94 C 522.89 402.87 525.70 403.49 528.26 404.76 C 521.89 405.79 515.42 405.24 509.00 405.32 C 502.23 405.21 495.42 405.83 488.71 404.76 Z"></path>
  </g>
  <g id="#e2a852ff" transform="matrix(1.006108, 0, 0, 1.006108, -156.58699, 7.429187)" style="">
    <path fill="#e2a852" opacity="1.00" d=" M 353.48 409.17 C 354.30 405.09 359.43 407.10 362.32 407.07 C 361.18 410.87 356.35 408.98 353.48 409.17 Z"></path>
  </g>
  <g id="#e9ac54ff" transform="matrix(1.006108, 0, 0, 1.006108, -156.58699, 7.429187)" style="">
    <path fill="#e9ac54" opacity="1.00" d=" M 366.45 409.24 C 366.58 407.55 367.44 406.70 369.03 406.69 C 371.18 406.52 374.48 406.20 374.54 409.22 C 371.84 409.32 369.14 409.33 366.45 409.24 Z"></path>
  </g>
  <g id="#e8ad54ff" transform="matrix(1.006108, 0, 0, 1.006108, -156.58699, 7.429187)" style="">
    <path fill="#e8ad54" opacity="1.00" d=" M 379.45 409.26 C 379.39 406.12 382.81 406.54 385.00 406.72 C 386.75 406.57 387.47 407.38 387.17 409.15 C 384.60 409.44 382.02 409.36 379.45 409.26 Z"></path>
  </g>
  <g id="#282c37ff" transform="matrix(1.006108, 0, 0, 1.006108, -156.58699, 7.429187)" style="">
    <path fill="#282c37" opacity="1.00" d=" M 270.12 411.35 C 274.48 411.55 278.85 411.77 283.22 411.77 C 287.79 411.72 292.35 411.44 296.92 411.25 C 296.93 414.16 296.93 417.07 296.91 419.98 C 290.53 420.40 284.13 420.37 277.75 420.18 C 275.25 420.02 272.74 419.91 270.24 419.80 C 270.19 416.98 270.15 414.16 270.12 411.35 Z"></path>
  </g>
  <g id="#888fa4ff" transform="matrix(1.006108, 0, 0, 1.006108, -156.58699, 7.429187)" style="">
    <path fill="#888fa4" opacity="1.00" d=" M 345.09 412.31 C 363.40 412.35 381.72 412.32 400.03 412.35 C 421.68 413.05 443.34 412.60 465.00 412.72 C 496.33 412.71 527.67 412.74 559.00 412.73 C 564.86 412.78 570.84 412.04 576.57 413.68 C 570.10 414.77 563.52 414.31 557.00 414.33 C 507.48 414.35 457.96 414.33 408.45 414.33 C 408.25 416.92 408.05 419.51 407.86 422.11 C 387.57 422.64 367.26 422.19 346.96 422.35 C 346.08 421.71 345.22 421.05 344.39 420.36 C 344.64 417.67 344.87 414.99 345.09 412.31 Z"></path>
  </g>
</svg>